HIERARCHY
ROOT Hips
{
  OFFSET -0.389769 79.5218 83.6019
  CHANNELS 6 Xposition Yposition Zposition Zrotation Xrotation Yrotation
  JOINT Spine
  {
    OFFSET 0 8.5038 -4.6017
    CHANNELS 6 Xposition Yposition Zposition Zrotation Xrotation Yrotation
    JOINT Spine1
    {
      OFFSET 0 7.7603 0.4054
      CHANNELS 6 Xposition Yposition Zposition Zrotation Xrotation Yrotation
      JOINT Spine2
      {
        OFFSET 0 9.6025 -2.1374
        CHANNELS 6 Xposition Yposition Zposition Zrotation Xrotation Yrotation
        JOINT Neck
        {
          OFFSET 0 21.6389 -0.45
          CHANNELS 6 Xposition Yposition Zposition Zrotation Xrotation Yrotation
          JOINT Head
          {
            OFFSET -0.0001 12.2197 3.3238
            CHANNELS 6 Xposition Yposition Zposition Zrotation Xrotation Yrotation
            End Site
            {
              OFFSET 0.0001 17.074 0.5097
            }
          }
        }
        JOINT LeftShoulder
        {
          OFFSET 2.1846 20.8826 7.1545
          CHANNELS 6 Xposition Yposition Zposition Zrotation Xrotation Yrotation
          JOINT LeftArm
          {
            OFFSET 12.7628 2.9953 -4.8467
            CHANNELS 6 Xposition Yposition Zposition Zrotation Xrotation Yrotation
            JOINT LeftForeArm
            {
              OFFSET 27.1108 -0.0961 -0.2349
              CHANNELS 6 Xposition Yposition Zposition Zrotation Xrotation Yrotation
              JOINT LeftHand
              {
                OFFSET 22.6162 0.0656 -0.1355
                CHANNELS 6 Xposition Yposition Zposition Zrotation Xrotation Yrotation
                JOINT LeftHandIndex1
                {
                  OFFSET 8.7654 0.7666 2.4346
                  CHANNELS 6 Xposition Yposition Zposition Zrotation Xrotation Yrotation
                  JOINT LeftHandIndex2
                  {
                    OFFSET 3.2787 -0.7995 0.5777
                    CHANNELS 6 Xposition Yposition Zposition Zrotation Xrotation Yrotation
                    JOINT LeftHandIndex3
                    {
                      OFFSET 2.2383 -0.5459 0.3945
                      CHANNELS 6 Xposition Yposition Zposition Zrotation Xrotation Yrotation
                      End Site
                      {
                        OFFSET 1.5927 -0.4755 0.2584
                      }
                    }
                  }
                }
                JOINT LeftHandMiddle1
                {
                  OFFSET 8.8962 0.8853 0.212
                  CHANNELS 6 Xposition Yposition Zposition Zrotation Xrotation Yrotation
                  JOINT LeftHandMiddle2
                  {
                    OFFSET 4.0539 0.0113 -0.0239
                    CHANNELS 6 Xposition Yposition Zposition Zrotation Xrotation Yrotation
                    JOINT LeftHandMiddle3
                    {
                      OFFSET 2.2471 0.0069 -0.0137
                      CHANNELS 6 Xposition Yposition Zposition Zrotation Xrotation Yrotation
                      End Site
                      {
                        OFFSET 2.0183 -0.1425 0.0027
                      }
                    }
                  }
                }
                JOINT LeftHandRing1
                {
                  OFFSET 8.431 0.5908 -1.9946
                  CHANNELS 6 Xposition Yposition Zposition Zrotation Xrotation Yrotation
                  JOINT LeftHandRing2
                  {
                    OFFSET 3.6785 -0.1862 -0.2303
                    CHANNELS 6 Xposition Yposition Zposition Zrotation Xrotation Yrotation
                    JOINT LeftHandRing3
                    {
                      OFFSET 2.0962 -0.1055 -0.1317
                      CHANNELS 6 Xposition Yposition Zposition Zrotation Xrotation Yrotation
                      End Site
                      {
                        OFFSET 1.8534 -0.2279 -0.0876
                      }
                    }
                  }
                }
                JOINT LeftHandPinky1
                {
                  OFFSET 7.8236 -0.5945 -3.4447
                  CHANNELS 6 Xposition Yposition Zposition Zrotation Xrotation Yrotation
                  JOINT LeftHandPinky2
                  {
                    OFFSET 2.2626 -0.4719 -0.6246
                    CHANNELS 6 Xposition Yposition Zposition Zrotation Xrotation Yrotation
                    JOINT LeftHandPinky3
                    {
                      OFFSET 1.6592 -0.3455 -0.4583
                      CHANNELS 6 Xposition Yposition Zposition Zrotation Xrotation Yrotation
                      End Site
                      {
                        OFFSET 1.4727 -0.4046 -0.3379
                      }
                    }
                  }
                }
                JOINT LeftHandThumb1
                {
                  OFFSET 1.8133 -1.3724 1.3746
                  CHANNELS 6 Xposition Yposition Zposition Zrotation Xrotation Yrotation
                  JOINT LeftHandThumb2
                  {
                    OFFSET 3.376 -1.1087 2.5453
                    CHANNELS 6 Xposition Yposition Zposition Zrotation Xrotation Yrotation
                    JOINT LeftHandThumb3
                    {
                      OFFSET 2.223 -0.7955 1.6016
                      CHANNELS 6 Xposition Yposition Zposition Zrotation Xrotation Yrotation
                      End Site
                      {
                        OFFSET 1.6347 -0.5627 1.1194
                      }
                    }
                  }
                }
              }
            }
          }
        }
        JOINT RightShoulder
        {
          OFFSET -2.1846 20.8826 7.1545
          CHANNELS 6 Xposition Yposition Zposition Zrotation Xrotation Yrotation
          JOINT RightArm
          {
            OFFSET -12.7651 2.9958 -4.8475
            CHANNELS 6 Xposition Yposition Zposition Zrotation Xrotation Yrotation
            JOINT RightForeArm
            {
              OFFSET -27.1108 -0.0961 -0.2349
              CHANNELS 6 Xposition Yposition Zposition Zrotation Xrotation Yrotation
              JOINT RightHand
              {
                OFFSET -22.6162 0.0656 -0.1355
                CHANNELS 6 Xposition Yposition Zposition Zrotation Xrotation Yrotation
                JOINT RightHandIndex1
                {
                  OFFSET -8.7654 0.7667 2.4346
                  CHANNELS 6 Xposition Yposition Zposition Zrotation Xrotation Yrotation
                  JOINT RightHandIndex2
                  {
                    OFFSET -3.2787 -0.7995 0.5777
                    CHANNELS 6 Xposition Yposition Zposition Zrotation Xrotation Yrotation
                    JOINT RightHandIndex3
                    {
                      OFFSET -2.2383 -0.5461 0.3945
                      CHANNELS 6 Xposition Yposition Zposition Zrotation Xrotation Yrotation
                      End Site
                      {
                        OFFSET -1.5928 -0.4755 0.2584
                      }
                    }
                  }
                }
                JOINT RightHandMiddle1
                {
                  OFFSET -8.8962 0.8853 0.212
                  CHANNELS 6 Xposition Yposition Zposition Zrotation Xrotation Yrotation
                  JOINT RightHandMiddle2
                  {
                    OFFSET -4.0539 0.0113 -0.024
                    CHANNELS 6 Xposition Yposition Zposition Zrotation Xrotation Yrotation
                    JOINT RightHandMiddle3
                    {
                      OFFSET -2.2471 0.0069 -0.0137
                      CHANNELS 6 Xposition Yposition Zposition Zrotation Xrotation Yrotation
                      End Site
                      {
                        OFFSET -2.0183 -0.1425 0.0027
                      }
                    }
                  }
                }
                JOINT RightHandRing1
                {
                  OFFSET -8.431 0.5908 -1.9946
                  CHANNELS 6 Xposition Yposition Zposition Zrotation Xrotation Yrotation
                  JOINT RightHandRing2
                  {
                    OFFSET -3.6785 -0.1862 -0.2303
                    CHANNELS 6 Xposition Yposition Zposition Zrotation Xrotation Yrotation
                    JOINT RightHandRing3
                    {
                      OFFSET -2.0962 -0.1055 -0.1317
                      CHANNELS 6 Xposition Yposition Zposition Zrotation Xrotation Yrotation
                      End Site
                      {
                        OFFSET -1.8534 -0.2279 -0.0876
                      }
                    }
                  }
                }
                JOINT RightHandPinky1
                {
                  OFFSET -7.8236 -0.5945 -3.4447
                  CHANNELS 6 Xposition Yposition Zposition Zrotation Xrotation Yrotation
                  JOINT RightHandPinky2
                  {
                    OFFSET -2.2626 -0.4718 -0.624601
                    CHANNELS 6 Xposition Yposition Zposition Zrotation Xrotation Yrotation
                    JOINT RightHandPinky3
                    {
                      OFFSET -1.6592 -0.3454 -0.4583
                      CHANNELS 6 Xposition Yposition Zposition Zrotation Xrotation Yrotation
                      End Site
                      {
                        OFFSET -1.4727 -0.4046 -0.3379
                      }
                    }
                  }
                }
                JOINT RightHandThumb1
                {
                  OFFSET -1.8133 -1.3723 1.3745
                  CHANNELS 6 Xposition Yposition Zposition Zrotation Xrotation Yrotation
                  JOINT RightHandThumb2
                  {
                    OFFSET -3.3759 -1.1088 2.5454
                    CHANNELS 6 Xposition Yposition Zposition Zrotation Xrotation Yrotation
                    JOINT RightHandThumb3
                    {
                      OFFSET -2.223 -0.7954 1.6016
                      CHANNELS 6 Xposition Yposition Zposition Zrotation Xrotation Yrotation
                      End Site
                      {
                        OFFSET -1.6347 -0.5627 1.1194
                      }
                    }
                  }
                }
              }
            }
          }
        }
      }
    }
  }
  JOINT RightUpLeg
  {
    OFFSET -9.0969 3.8439 -0.7498
    CHANNELS 6 Xposition Yposition Zposition Zrotation Xrotation Yrotation
    JOINT RightLeg
    {
      OFFSET -0.7279 -39.5674 0
      CHANNELS 6 Xposition Yposition Zposition Zrotation Xrotation Yrotation
      JOINT RightFoot
      {
        OFFSET 0 -38.8528 0
        CHANNELS 6 Xposition Yposition Zposition Zrotation Xrotation Yrotation
        JOINT RightToeBase
        {
          OFFSET 0 -4.2703 8.9297
          CHANNELS 6 Xposition Yposition Zposition Zrotation Xrotation Yrotation
          End Site
          {
            OFFSET 0 0 5.9906
          }
        }
      }
    }
  }
  JOINT LeftUpLeg
  {
    OFFSET 9.0968 3.8442 -0.7498
    CHANNELS 6 Xposition Yposition Zposition Zrotation Xrotation Yrotation
    JOINT LeftLeg
    {
      OFFSET 0.728 -39.5676 0
      CHANNELS 6 Xposition Yposition Zposition Zrotation Xrotation Yrotation
      JOINT LeftFoot
      {
        OFFSET 0 -38.8528 0
        CHANNELS 6 Xposition Yposition Zposition Zrotation Xrotation Yrotation
        JOINT LeftToeBase
        {
          OFFSET 0 -4.2703 8.9297
          CHANNELS 6 Xposition Yposition Zposition Zrotation Xrotation Yrotation
          End Site
          {
            OFFSET 0 0 5.9906
          }
        }
      }
    }
  }
}
MOTION
Frames:	4
Frame Time:	0.0333333
0.132766 80.951 81.7619 -2.46304e-005 1.62373 -179.623 0 8.5038 -4.6017 -0.181371 1.26762 -0.432021 0 7.7603 0.4054 -0.353304 2.53656 -0.86034 0 9.6025 -2.1374 -0.353303 2.53656 -0.860339 8.88178e-016 21.6389 -0.45 -2.79326e-006 2.07702e-005 -2.47693e-006 -0.0001 12.2197 3.3238 0.74068 -4.22719 1.8456 2.1846 20.8826 7.1545 -12.2681 -0.559463 2.69969 12.7628 2.9953 -4.8467 -68.6411 10.6406 2.20791 27.1108 -0.0961 -0.2349 0.00357857 -0.16825 -3.87072 22.6162 0.0656 -0.1355 4.06193 6.36269 7.72011 8.7654 0.7666 2.4346 -22.3748 9.6715 10.3244 3.2787 -0.7995 0.5777 -46.0614 13.4019 8.76264 2.2383 -0.5459 0.3945 -41.8246 12.5487 7.55655 8.8962 0.8853 0.212 -38.0272 10.0426 -0.722708 4.0539 0.0113 -0.0239 -47.326 5.55343 1.4676 2.2471 0.0069 -0.0137 -47.7279 5.59242 1.49893 8.431 0.5908 -1.9946 -37.5971 13.1589 -14.8428 3.6785 -0.1862 -0.2303 -56.3445 -2.61442 -13.3223 2.0962 -0.1055 -0.1317 -48.0644 -3.07925 -11.3027 7.8236 -0.5945 -3.4447 -32.8068 6.02522 -31.2152 2.2626 -0.4719 -0.6246 -57.212 -15.4964 -25.0526 1.6592 -0.3455 -0.4583 -43.2699 -14.3047 -17.9584 1.8133 -1.3724 1.3746 3.64037 -10.974 3.3926 3.376 -1.1087 2.5453 4.73293 8.27154 13.3544 2.223 -0.7955 1.6016 3.41303 5.48599 9.10303 -2.1846 20.8826 7.1545 11.92 -0.135875 -0.0166682 -12.7651 2.9958 -4.8475 71.0146 11.1719 0.989001 -27.1108 -0.0961001 -0.2349 -0.00442522 -0.0327187 0.748662 -22.6162 0.0656 -0.1355 -5.45294 3.90821 -6.61618 -8.7654 0.766701 2.4346 22.4266 9.54535 -10.3038 -3.2787 -0.7995 0.5777 46.1156 13.1635 -8.66763 -2.2383 -0.5461 0.3945 41.8789 12.3278 -7.47811 -8.8962 0.885301 0.212 38.0729 9.8386 0.788989 -4.0539 0.0113 -0.024 47.3474 5.31001 -1.36198 -2.2471 0.0069 -0.0137 47.7492 5.34742 -1.39163 -8.431 0.5908 -1.9946 37.658 12.9569 14.9046 -3.6785 -0.1862 -0.2303 56.3357 -2.88989 13.4696 -2.0962 -0.1055 -0.1317 48.052 -3.32545 11.4121 -7.8236 -0.5945 -3.4447 32.8357 5.84592 31.2664 -2.2626 -0.4718 -0.624601 57.1618 -15.7745 25.1974 -1.6592 -0.3454 -0.4583 43.2079 -14.5314 18.0405 -1.8133 -1.3723 1.3745 -3.70432 -10.9528 -3.39803 -3.3759 -1.1088 2.5454 -4.68495 8.29867 -13.3569 -2.223 -0.795401 1.6016 -3.38125 5.50557 -9.10397 -9.0969 3.8439 -0.7498 -4.64455 1.63033 -18.2663 -0.7279 -39.5674 1.42109e-014 -0.0870394 4.53719 -0.579872 0 -38.8528 0 13.4964 -2.7151 6.1285 -7.10543e-015 -4.2703 8.9297 0.674333 0.0650571 -0.934604 9.0968 3.8442 -0.7498 1.12743 1.36394 7.74933 0.728 -39.5676 1.42109e-014 0.104466 5.92807 0.268165 0 -38.8528 0 -11.2297 -4.10273 -6.68402 0 -4.2703 8.9297 0.296824 -0.60338 0.00115171 
0.276252 80.9348 81.8662 -0.00517395 1.30423 -179.847 -2.77556e-017 8.5038 -4.6017 -0.166738 1.14726 -0.434004 1.11022e-016 7.7603 0.4054 -0.324875 2.29574 -0.864925 0 9.6025 -2.1374 -0.324874 2.29574 -0.864924 -8.88178e-016 21.6389 -0.45 -2.82859e-005 0.000218233 -8.01792e-005 -0.0001 12.2197 3.3238 0.709342 -3.5438 2.16935 2.1846 20.8826 7.1545 -11.7036 -0.462302 2.36652 12.7628 2.9953 -4.8467 -69.0731 10.2194 2.30743 27.1108 -0.0961001 -0.2349 0.00305202 -0.184307 -4.24232 22.6162 0.0656 -0.1355 2.37802 7.44331 8.0166 8.7654 0.7666 2.4346 -21.1563 9.38617 10.1545 3.2787 -0.7995 0.5777 -44.2311 13.0448 8.23435 2.2383 -0.5459 0.3945 -41.2175 12.4188 7.38874 8.8962 0.885301 0.212 -36.8329 9.52762 -0.741837 4.0539 0.0113 -0.0239 -44.8606 5.30948 1.2815 2.2471 0.0069 -0.0137 -46.3603 5.45885 1.39343 8.431 0.5908 -1.9946 -37.0179 12.0151 -14.3369 3.6785 -0.1862 -0.2303 -53.1302 -2.82959 -12.546 2.0962 -0.1055 -0.1317 -45.882 -3.15273 -10.7616 7.8236 -0.5945 -3.4447 -32.2664 5.30336 -30.9196 2.2626 -0.4719 -0.6246 -54.556 -15.3996 -23.6865 1.6592 -0.3455 -0.4583 -41.7648 -14.0748 -17.2098 1.8133 -1.3724 1.3746 3.24812 -12.2465 3.89068 3.376 -1.1087 2.5453 4.60847 7.9852 12.9257 2.223 -0.7955 1.6016 3.30144 5.27243 8.76882 -2.1846 20.8826 7.1545 11.4771 -0.0770698 0.277577 -12.7651 2.9958 -4.8475 71.339 10.9146 1.00229 -27.1108 -0.0961 -0.2349 -0.00414865 -0.0229132 0.522465 -22.6162 0.0656 -0.1355 -4.42634 3.43658 -6.66692 -8.7654 0.7667 2.4346 21.207 9.26653 -10.1364 -3.2787 -0.7995 0.5777 44.2856 12.8138 -8.14669 -2.2383 -0.5461 0.3945 41.2718 12.2006 -7.31257 -8.8962 0.8853 0.212 36.877 9.32908 0.804261 -4.0539 0.0113 -0.024 44.8819 5.07595 -1.18605 -2.2471 0.0069 -0.0137 46.3816 5.21923 -1.29188 -8.431 0.5908 -1.9946 37.0737 11.8157 14.3978 -3.6785 -0.1862 -0.2303 53.1199 -3.09436 12.678 -2.0962 -0.1055 -0.1317 45.8688 -3.39034 10.8617 -7.8236 -0.5945 -3.4447 32.292 5.12669 30.9695 -2.2626 -0.4718 -0.624601 54.5026 -15.6691 23.8181 -1.6592 -0.3454 -0.4583 41.7024 -14.2951 17.286 -1.8133 -1.3723 1.3745 -3.31978 -12.2276 -3.89778 -3.3759 -1.1088 2.5454 -4.56214 8.0116 -12.9279 -2.223 -0.7954 1.6016 -3.27087 5.2914 -8.7697 -9.0969 3.8439 -0.7498 -4.6603 0.893756 -18.0324 -0.7279 -39.5674 0 -0.0899386 5.20283 -0.636426 0 -38.8528 -1.42109e-014 13.4276 -2.94796 6.21273 0 -4.2703 8.9297 0.634782 0.0765908 -0.897211 9.0968 3.8442 -0.7498 1.7264 0.533312 7.36161 0.728 -39.5676 0 0.128161 6.73014 0.406092 3.55271e-015 -38.8528 0 -11.7539 -4.19848 -7.55746 0 -4.2703 8.9297 0.289665 -0.58731 0.00818602 
0.411795 80.9189 81.9578 -0.00987933 1.00906 179.918 0 8.5038 -4.6017 -0.151026 1.02944 -0.427674 -2.22045e-016 7.7603 0.4054 -0.294434 2.05999 -0.852841 0 9.6025 -2.1374 -0.294434 2.05999 -0.852841 0 21.6389 -0.45 -6.79545e-005 0.000468932 -0.000194111 -0.0001 12.2197 3.3238 0.663727 -2.85508 2.48539 2.1846 20.8826 7.1545 -11.1217 -0.361707 1.98901 12.7628 2.9953 -4.8467 -69.5472 9.73267 2.41205 27.1108 -0.0961001 -0.2349 0.00232599 -0.200849 -4.62555 22.6162 0.0656 -0.1355 0.830149 8.52661 8.18884 8.7654 0.7666 2.4346 -19.9281 9.09458 9.9891 3.2787 -0.7995 0.5777 -42.3894 12.6678 7.71389 2.2383 -0.5459 0.3945 -40.6053 12.286 7.22081 8.8962 0.8853 0.212 -35.6294 9.00729 -0.750285 4.0539 0.0113 -0.0239 -42.3726 5.05526 1.1044 2.2471 0.0069 -0.0137 -44.9804 5.32154 1.29026 8.431 0.5908 -1.9946 -36.4255 10.865 -13.8163 3.6785 -0.1862 -0.2303 -49.8807 -3.0024 -11.7508 2.0962 -0.1055 -0.1317 -43.6777 -3.206 -10.2127 7.8236 -0.5945 -3.4447 -31.7178 4.57714 -30.6146 2.2626 -0.4719 -0.6246 -51.8785 -15.24 -22.314 1.6592 -0.3455 -0.4583 -40.2501 -13.8236 -16.4614 1.8133 -1.3724 1.3746 2.86162 -13.535 4.38701 3.376 -1.1087 2.5453 4.48069 7.6971 12.4926 2.223 -0.795501 1.6016 3.18753 5.05751 8.43112 -2.1846 20.8826 7.1545 10.9923 -0.0180501 0.57788 -12.7651 2.9958 -4.8475 71.7017 10.6248 0.963493 -27.1108 -0.0961001 -0.2349 -0.00389292 -0.015682 0.356229 -22.6162 0.0656 -0.1355 -3.38778 2.92944 -6.709 -8.76539 0.7667 2.4346 19.9779 8.9817 -9.97297 -3.2787 -0.799501 0.5777 42.4441 12.4446 -7.63344 -2.2383 -0.5461 0.3945 40.6595 12.0704 -7.1469 -8.89619 0.8853 0.212 35.6719 8.81441 0.809083 -4.0539 0.0113 -0.024 42.3937 4.83215 -1.01886 -2.2471 0.00690001 -0.0137 45.0022 5.08756 -1.19441 -8.43099 0.5908 -1.9946 36.4765 10.6684 13.8763 -3.6785 -0.1862 -0.2303 49.8688 -3.25551 11.8681 -2.0962 -0.1055 -0.1317 43.664 -3.43457 10.3039 -7.82359 -0.5945 -3.4447 31.7401 4.40309 30.6633 -2.2626 -0.4718 -0.624601 51.8222 -15.5002 22.4328 -1.6592 -0.3454 -0.4583 40.1877 -14.0373 16.5321 -1.8133 -1.3723 1.3745 -2.94118 -13.5183 -4.39591 -3.3759 -1.1088 2.5454 -4.43611 7.72291 -12.4948 -2.223 -0.795401 1.6016 -3.15828 5.07586 -8.43197 -9.0969 3.8439 -0.7498 -4.66904 0.20484 -17.7942 -0.7279 -39.5674 0 -0.09219 5.82536 -0.688958 0 -38.8528 0 13.3636 -3.16089 6.29703 7.10543e-015 -4.2703 8.9297 0.595561 0.0964215 -0.852916 9.0968 3.8442 -0.7498 2.30786 -0.13883 6.91278 0.728 -39.5676 0 0.143679 7.27211 0.499126 0 -38.8528 0 -12.273 -4.18904 -8.33376 1.77636e-015 -4.2703 8.9297 0.278216 -0.561637 0.0193725 
0.548275 80.9039 82.0189 -0.00979157 0.793456 179.637 -2.22045e-016 8.5038 -4.6017 -0.130175 0.914024 -0.392828 2.22045e-016 7.7603 0.4054 -0.254127 1.82891 -0.783727 0 9.6025 -2.1374 -0.254125 1.8289 -0.783722 8.88178e-016 21.6389 -0.45 -6.35989e-005 0.000384128 -0.000147018 -0.0001 12.2197 3.3238 0.573302 -2.13113 2.791 2.1846 20.8826 7.1545 -10.5021 -0.241015 1.45646 12.7628 2.9953 -4.8467 -70.1535 9.05959 2.54571 27.1108 -0.0961001 -0.2349 0.0016112 -0.215906 -4.97353 22.6162 0.0656 -0.1355 -0.273001 9.53491 7.90269 8.76539 0.7666 2.4346 -18.7199 8.80711 9.78966 3.2787 -0.7995 0.5777 -40.5508 12.274 7.20597 2.2383 -0.5459 0.3945 -39.9941 12.1514 7.05453 8.89619 0.8853 0.212 -34.4513 8.47827 -0.769951 4.0539 0.0113 -0.0239 -39.8041 4.78486 0.933357 2.2471 0.0069 -0.0137 -43.6421 5.18599 1.19336 8.43099 0.5908 -1.9946 -35.8714 9.6771 -13.2898 3.6785 -0.1862 -0.2303 -46.504 -3.13389 -10.9161 2.0962 -0.1055 -0.1317 -41.4452 -3.23844 -9.65526 7.8236 -0.5945 -3.4447 -31.1882 3.82291 -30.3116 2.2626 -0.4719 -0.6246 -49.1262 -15.0111 -20.9102 1.6592 -0.3455 -0.4583 -38.7453 -13.5541 -15.7232 1.8133 -1.3724 1.3746 2.48313 -14.8706 4.87933 3.376 -1.1087 2.5453 4.35419 7.41733 12.0702 2.223 -0.7955 1.6016 3.07344 4.84529 8.09626 -2.1846 20.8826 7.1545 10.3427 0.0419232 0.873081 -12.7651 2.9958 -4.8475 72.2833 10.0237 0.730631 -27.1108 -0.0961001 -0.2349 -0.00372904 -0.0134084 0.304321 -22.6162 0.0656 -0.1355 -2.35359 2.41693 -6.73531 -8.7654 0.7667 2.4346 18.8073 8.71125 -9.74804 -3.2787 -0.7995 0.5777 40.6327 12.0647 -7.13968 -2.2383 -0.5461 0.3945 40.0542 11.9398 -6.98445 -8.8962 0.8853 0.212 34.5332 8.29408 0.843054 -4.0539 0.0113 -0.024 39.8069 4.57109 -0.856438 -2.2471 0.0069 -0.0137 43.7158 4.9626 -1.10639 -8.431 0.5908 -1.9946 35.9591 9.47385 13.3644 -3.6785 -0.1862 -0.2303 46.4577 -3.3749 11.0104 -2.0962 -0.1055 -0.1317 41.4492 -3.45739 9.74235 -7.8236 -0.5945 -3.4447 31.2254 3.64058 30.3707 -2.2626 -0.4718 -0.624601 49.053 -15.2598 21.0092 -1.6592 -0.3454 -0.4583 38.7102 -13.7663 15.802 -1.8133 -1.3723 1.3745 -2.57637 -14.8638 -4.88428 -3.3759 -1.1088 2.5454 -4.31639 7.45384 -12.0896 -2.223 -0.7954 1.6016 -3.0478 4.86747 -8.10414 -9.0969 3.8439 -0.7498 -4.65781 -0.351709 -17.5442 -0.7279 -39.5674 1.42109e-014 -0.093409 6.35918 -0.727109 0 -38.8528 0 13.3037 -3.33722 6.39878 0 -4.2703 8.9297 0.557747 0.147728 -0.781848 9.0968 3.8442 -0.7498 2.85723 -0.322817 6.27361 0.728 -39.5676 1.42109e-014 0.14243 7.04711 0.467448 -3.55271e-015 -38.8528 0 -12.7824 -3.88657 -8.85549 1.77636e-015 -4.2703 8.9297 0.255623 -0.511025 0.0415312 
